<svg width="8" height="8" viewBox="0 0 8 8" fill="none" xmlns="http://www.w3.org/2000/svg">
<g clip-path="url(#clip0_84_510)">
<path d="M7.66671 4L6.85337 3.07L6.96671 1.84L5.76337 1.56667L5.13337 0.5L4.00004 0.986667L2.86671 0.5L2.23671 1.56333L1.03337 1.83333L1.14671 3.06667L0.333374 4L1.14671 4.93L1.03337 6.16333L2.23671 6.43667L2.86671 7.5L4.00004 7.01L5.13337 7.49667L5.76337 6.43333L6.96671 6.16L6.85337 4.93L7.66671 4ZM3.12671 5.33667L2.33337 4.53667C2.30247 4.50583 2.27796 4.4692 2.26123 4.42887C2.2445 4.38855 2.23589 4.34532 2.23589 4.30167C2.23589 4.25801 2.2445 4.21478 2.26123 4.17446C2.27796 4.13413 2.30247 4.0975 2.33337 4.06667L2.35671 4.04333C2.48671 3.91333 2.70004 3.91333 2.83004 4.04333L3.36671 4.58333L5.08337 2.86333C5.21337 2.73333 5.42671 2.73333 5.55671 2.86333L5.58004 2.88667C5.71004 3.01667 5.71004 3.22667 5.58004 3.35667L3.60671 5.33667C3.47004 5.46667 3.26004 5.46667 3.12671 5.33667V5.33667Z" fill="url(#paint0_linear_84_510)"/>
</g>
<defs>
<linearGradient id="paint0_linear_84_510" x1="0.333374" y1="0.5" x2="7.68293" y2="0.517079" gradientUnits="userSpaceOnUse">
<stop stop-color="white"/>
<stop offset="1" stop-color="white"/>
</linearGradient>
<clipPath id="clip0_84_510">
<rect width="8" height="8" rx="4" fill="white"/>
</clipPath>
</defs>
</svg>
