<svg width="8" height="8" viewBox="0 0 8 8" fill="none" xmlns="http://www.w3.org/2000/svg">
<g clip-path="url(#clip0_84_58)">
<path d="M7.66671 4L6.85337 3.07L6.96671 1.84L5.76337 1.56667L5.13337 0.5L4.00004 0.986667L2.86671 0.5L2.23671 1.56333L1.03337 1.83333L1.14671 3.06667L0.333374 4L1.14671 4.93L1.03337 6.16333L2.23671 6.43667L2.86671 7.5L4.00004 7.01L5.13337 7.49667L5.76337 6.43333L6.96671 6.16L6.85337 4.93L7.66671 4ZM3.12671 5.33667L2.33337 4.53667C2.30247 4.50583 2.27796 4.4692 2.26123 4.42887C2.2445 4.38855 2.23589 4.34532 2.23589 4.30167C2.23589 4.25801 2.2445 4.21478 2.26123 4.17446C2.27796 4.13413 2.30247 4.0975 2.33337 4.06667L2.35671 4.04333C2.48671 3.91333 2.70004 3.91333 2.83004 4.04333L3.36671 4.58333L5.08337 2.86333C5.21337 2.73333 5.42671 2.73333 5.55671 2.86333L5.58004 2.88667C5.71004 3.01667 5.71004 3.22667 5.58004 3.35667L3.60671 5.33667C3.47004 5.46667 3.26004 5.46667 3.12671 5.33667Z" fill="url(#paint0_linear_84_58)"/>
<path d="M3.12665 5.3367L2.33332 4.5367C2.30242 4.50586 2.2779 4.46924 2.26118 4.42891C2.24445 4.38859 2.23584 4.34536 2.23584 4.3017C2.23584 4.25805 2.24445 4.21482 2.26118 4.17449C2.2779 4.13417 2.30242 4.09754 2.33332 4.0667L2.35665 4.04337C2.48665 3.91337 2.69999 3.91337 2.82999 4.04337L3.36666 4.58337L5.08332 2.86337C5.21332 2.73337 5.42666 2.73337 5.55666 2.86337L5.57999 2.8867C5.70999 3.0167 5.70999 3.2267 5.57999 3.3567L3.60666 5.3367C3.46999 5.4667 3.25999 5.4667 3.12665 5.3367Z" fill="#F5F8FA"/>
</g>
<defs>
<linearGradient id="paint0_linear_84_58" x1="0.333374" y1="0.5" x2="7.68293" y2="0.517079" gradientUnits="userSpaceOnUse">
<stop stop-color="#49DD81"/>
<stop offset="1" stop-color="#22B4C6"/>
</linearGradient>
<clipPath id="clip0_84_58">
<rect width="8" height="8" rx="4" fill="white"/>
</clipPath>
</defs>
</svg>
