<svg width="24" height="24" viewBox="0 0 24 24" fill="none" xmlns="http://www.w3.org/2000/svg">
<path fill-rule="evenodd" clip-rule="evenodd" d="M12 3.42859C7.26613 3.42859 3.42857 7.26615 3.42857 12C3.42857 16.7339 7.26613 20.5714 12 20.5714C16.7339 20.5714 20.5714 16.7339 20.5714 12C20.5714 9.72673 19.6684 7.54656 18.0609 5.9391C16.4535 4.33165 14.2733 3.42859 12 3.42859ZM14.7786 13.7857C14.982 13.9904 15.0423 14.2975 14.9314 14.5639C14.8204 14.8303 14.56 15.0038 14.2714 15.0036C14.0865 14.9944 13.9123 14.9137 13.7857 14.7786L12.0179 12.9929L10.25 14.7786C10.116 14.9127 9.93422 14.9881 9.74464 14.9881C9.55507 14.9881 9.37326 14.9127 9.23929 14.7786C9.10516 14.6446 9.0298 14.4628 9.0298 14.2732C9.0298 14.0837 9.10516 13.9019 9.23929 13.7679L11.025 12L9.23929 10.2322C8.96019 9.95306 8.96019 9.50055 9.23929 9.22145C9.51839 8.94234 9.9709 8.94234 10.25 9.22145L12.0179 11.0072L13.7857 9.22145C14.0648 8.94234 14.5173 8.94234 14.7964 9.22145C15.0755 9.50055 15.0755 9.95306 14.7964 10.2322L13.0107 12L14.7786 13.7857Z" fill="#FBC625"/>
</svg>
