<svg width="24" height="24" viewBox="0 0 24 24" fill="none" xmlns="http://www.w3.org/2000/svg">
<path d="M11.5 20C9.81886 20 8.17547 19.5015 6.77766 18.5675C5.37984 17.6335 4.29037 16.306 3.64703 14.7528C3.00368 13.1996 2.83535 11.4906 3.16333 9.84173C3.4913 8.1929 4.30085 6.67834 5.4896 5.4896C6.67834 4.30085 8.1929 3.4913 9.84173 3.16333C11.4906 2.83535 13.1996 3.00368 14.7528 3.64703C16.306 4.29037 17.6335 5.37984 18.5675 6.77766C19.5015 8.17547 20 9.81886 20 11.5C20 13.7543 19.1045 15.9164 17.5104 17.5104C15.9163 19.1045 13.7543 20 11.5 20ZM11.5 4.7C10.1551 4.7 8.84038 5.09882 7.72213 5.84601C6.60387 6.5932 5.7323 7.65522 5.21762 8.89776C4.70295 10.1403 4.56828 11.5075 4.83066 12.8266C5.09304 14.1457 5.74068 15.3573 6.69168 16.3083C7.64267 17.2593 8.85432 17.907 10.1734 18.1693C11.4925 18.4317 12.8597 18.2971 14.1022 17.7824C15.3448 17.2677 16.4068 16.3961 17.154 15.2779C17.9012 14.1596 18.3 12.8449 18.3 11.5C18.3 9.69653 17.5836 7.96692 16.3083 6.69168C15.0331 5.41643 13.3035 4.7 11.5 4.7Z" fill="#89888B"/>
<path d="M16.916 17.213L17.0273 17.2482L17.1289 17.3048C17.159 17.3258 17.1862 17.3506 17.2119 17.3771L17.2129 17.3761L20.1289 20.3038H20.1299C20.2388 20.4127 20.2998 20.5609 20.2998 20.715C20.2998 20.8691 20.2388 21.0172 20.1299 21.1261L20.1289 21.1251C20.0766 21.1787 20.015 21.2223 19.9463 21.2521C19.8754 21.2828 19.799 21.2992 19.7217 21.2999H19.7197C19.643 21.3002 19.567 21.2854 19.4961 21.256C19.4251 21.2265 19.3607 21.1827 19.3066 21.1281V21.129L16.3936 18.2003L16.3945 18.1993C16.3416 18.1485 16.2971 18.0894 16.2666 18.0226C16.2504 17.9871 16.2382 17.95 16.2295 17.9122L16.2148 17.797C16.2128 17.719 16.2263 17.6411 16.2549 17.5685L16.3086 17.465C16.3297 17.4325 16.3536 17.4019 16.3809 17.3741L16.4707 17.2999C16.5029 17.2782 16.5372 17.2592 16.5732 17.2443L16.6846 17.2111C16.7227 17.2036 16.7618 17.2 16.8008 17.2003L16.916 17.213Z" fill="#89888B" stroke="#89888B" stroke-width="0.6"/>
</svg>
